<?xml version="1.0" standalone="no"?>
<!DOCTYPE svg PUBLIC "-//W3C//DTD SVG 20010904//EN"
 "http://www.w3.org/TR/2001/REC-SVG-20010904/DTD/svg10.dtd">
<svg version="1.0" xmlns="http://www.w3.org/2000/svg"
 width="1205.000000pt" height="487.000000pt" viewBox="0 0 1205.000000 487.000000"
 preserveAspectRatio="xMidYMid meet">

<g transform="translate(0.000000,487.000000) scale(0.100000,-0.100000)"
fill="#000000" stroke="none">
<path d="M0 2435 l0 -2435 6025 0 6025 0 0 2435 0 2435 -6025 0 -6025 0 0
-2435z m1453 1189 c57 -19 128 -87 163 -155 48 -96 54 -143 54 -431 0 -147 2
-268 4 -268 2 0 28 16 58 35 75 50 163 75 262 75 251 0 452 -167 547 -455 23
-68 23 -81 27 -527 l3 -458 -745 0 -746 0 0 928 c0 1021 -2 984 62 1104 36 67
110 139 160 155 49 16 99 15 151 -3z m8337 1 c55 -19 97 -55 142 -122 67 -97
71 -124 78 -445 l5 -287 55 35 c146 92 341 100 500 19 139 -71 256 -223 312
-407 21 -70 22 -93 26 -525 l3 -453 -745 0 -746 0 0 925 c0 634 3 941 11 977
18 85 66 173 124 227 76 69 149 86 235 56z m-6195 -794 c158 -78 273 -220 326
-403 22 -75 24 -78 53 -78 94 -1 197 -99 248 -235 20 -56 22 -80 26 -367 l4
-308 -721 0 -721 0 0 428 c0 458 4 499 53 622 57 141 153 258 267 324 90 53
146 66 271 63 103 -2 109 -4 194 -46z m1856 29 c139 -43 268 -160 344 -312 76
-152 80 -181 80 -673 l0 -430 -692 -3 -693 -2 0 542 c0 573 1 585 48 690 26
61 102 141 156 168 81 39 185 19 250 -49 l29 -30 31 23 c120 90 303 121 447
76z m1679 -21 c168 -80 279 -214 343 -419 20 -61 21 -93 25 -523 l3 -457 -693
2 -693 3 -3 495 c-3 517 2 606 38 701 48 126 156 219 255 219 56 0 138 -33
169 -69 11 -11 23 -21 27 -21 4 0 30 15 56 33 26 17 77 42 113 55 56 19 81 22
175 19 102 -3 116 -6 185 -38z m1331 21 c180 -56 337 -232 394 -443 17 -64 19
-67 49 -67 110 -1 231 -137 265 -298 6 -31 11 -167 11 -332 l0 -280 -720 0
-720 0 0 428 c0 458 4 499 53 622 75 185 238 343 393 379 72 17 207 13 275 -9z"/>
</g>
</svg>
